HIERARCHY
ROOT __0
{
	OFFSET 0.0 0.0 0.0
	CHANNELS 0
	JOINT spine
	{
		OFFSET 0.000000 -0.014402 0.264660
		CHANNELS 6 Xposition Yposition Zposition Xrotation Yrotation Zrotation
		JOINT spine top
		{
			OFFSET -0.000000 0.058246 0.209758
			CHANNELS 3 Xrotation Yrotation Zrotation
			JOINT NeckBot
			{
				OFFSET 0.000000 -0.034711 0.125681
				CHANNELS 3 Xrotation Yrotation Zrotation
				JOINT NeckTop
				{
					OFFSET -0.000000 -0.014527 0.216432
					CHANNELS 3 Xrotation Yrotation Zrotation
					End Site
					{
						OFFSET 0.000000 0.018502 0.278669
					}
				}
			}
			JOINT ArmStartTop.L
			{
				OFFSET 0.016245 -0.034711 0.119841
				CHANNELS 6 Xposition Yposition Zposition Xrotation Yrotation Zrotation
				JOINT ArmMidTop.L
				{
					OFFSET 0.044463 0.000000 -0.029495
					CHANNELS 3 Xrotation Yrotation Zrotation
					JOINT ArmEndTop.L
					{
						OFFSET 0.393913 -0.000000 -0.000000
						CHANNELS 3 Xrotation Yrotation Zrotation
						End Site
						{
							OFFSET 0.461072 0.000000 0.000000
						}
					}
				}
			}
			JOINT ArmStart.R
			{
				OFFSET -0.016272 -0.034711 0.121166
				CHANNELS 6 Xposition Yposition Zposition Xrotation Yrotation Zrotation
				JOINT ArmMid.R
				{
					OFFSET -0.042500 0.000000 -0.029253
					CHANNELS 3 Xrotation Yrotation Zrotation
					JOINT ArmEnd.R
					{
						OFFSET -0.393079 -0.000000 0.000000
						CHANNELS 3 Xrotation Yrotation Zrotation
						End Site
						{
							OFFSET -0.483935 -0.000000 0.000000
						}
					}
				}
			}
		}
		JOINT ArmStartBot.L
		{
			OFFSET 0.038272 0.023939 0.230171
			CHANNELS 6 Xposition Yposition Zposition Xrotation Yrotation Zrotation
			JOINT ArmMidBot.L
			{
				OFFSET 0.048653 0.000000 -0.026886
				CHANNELS 3 Xrotation Yrotation Zrotation
				JOINT ArmEndBot.L
				{
					OFFSET 0.367740 -0.000000 -0.000000
					CHANNELS 3 Xrotation Yrotation Zrotation
					End Site
					{
						OFFSET 0.466508 -0.000000 -0.000000
					}
				}
			}
		}
		JOINT spider thingy.L
		{
			OFFSET 0.025407 0.014563 0.059552
			CHANNELS 6 Xposition Yposition Zposition Xrotation Yrotation Zrotation
			JOINT Bone.016
			{
				OFFSET 0.041396 -0.045012 0.007200
				CHANNELS 3 Xrotation Yrotation Zrotation
				End Site
				{
					OFFSET 0.011846 -0.065345 0.009206
				}
			}
		}
		JOINT spider thingy.R
		{
			OFFSET -0.027532 0.007880 0.057875
			CHANNELS 6 Xposition Yposition Zposition Xrotation Yrotation Zrotation
			JOINT Bone.018
			{
				OFFSET -0.037885 -0.045958 0.008877
				CHANNELS 3 Xrotation Yrotation Zrotation
				End Site
				{
					OFFSET -0.005129 -0.065345 0.009206
				}
			}
		}
	}
	JOINT pelvis top
	{
		OFFSET 0.000000 -0.014402 0.264660
		CHANNELS 6 Xposition Yposition Zposition Xrotation Yrotation Zrotation
		JOINT pelvis.L
		{
			OFFSET -0.000000 0.000000 -0.102221
			CHANNELS 3 Xrotation Yrotation Zrotation
			JOINT leg.L
			{
				OFFSET 0.092417 0.000000 -0.033701
				CHANNELS 3 Xrotation Yrotation Zrotation
				JOINT foot.L
				{
					OFFSET 0.022013 0.000000 -0.396427
					CHANNELS 3 Xrotation Yrotation Zrotation
					End Site
					{
						OFFSET -0.022013 0.000000 -0.207485
					}
				}
			}
		}
		JOINT pelvis.R
		{
			OFFSET 0.000000 0.000000 -0.102221
			CHANNELS 3 Xrotation Yrotation Zrotation
			JOINT Leg.R
			{
				OFFSET -0.089835 -0.000000 -0.034513
				CHANNELS 3 Xrotation Yrotation Zrotation
				JOINT foot.R
				{
					OFFSET -0.009175 0.000000 -0.383270
					CHANNELS 3 Xrotation Yrotation Zrotation
					End Site
					{
						OFFSET 0.009178 0.000000 -0.226021
					}
				}
			}
		}
	}
}
MOTION
Frames: 11
Frame Time: 0.041667
0.000000 -0.014402 0.264660 95.927917 0.000000 -0.000000 5.727967 0.000001 0.000000 5.893706 -5.166282 -3.643567 -23.517033 2.864132 3.503071 0.016245 -0.034711 0.119841 -3.107619 -9.563722 10.888384 -24.601202 24.323419 -51.181749 -11.041891 -7.702922 -36.012688 -0.016272 -0.034711 0.121166 6.992720 8.152208 -11.001138 -28.370097 -32.859080 37.109903 -3.594513 8.917374 40.767494 0.038272 0.023939 0.230171 -0.000002 0.000001 0.000000 16.803637 17.079475 -39.517579 -10.929448 -24.409271 -47.239846 0.025407 0.014563 0.059552 -0.000000 0.000000 0.000002 -0.000001 -0.000001 -0.000001 -0.027532 0.007880 0.057875 0.000001 -0.000000 -0.000000 0.000001 -0.000000 -0.000002 0.000000 -0.014402 0.264660 32.345566 0.000000 -0.000000 13.953778 0.000002 0.000000 -24.973600 -0.242274 -0.943222 55.087651 0.414619 -0.428612 13.953784 0.000005 0.000000 -8.782143 0.436748 -0.726442 30.412302 0.221427 0.031853 
0.000000 -0.014402 0.264660 96.908589 0.000000 -0.000000 7.239961 0.000002 0.000000 5.874427 -5.167304 -3.644057 -23.046347 2.918196 3.466962 0.016245 -0.034711 0.119841 -3.107617 -9.563722 10.888384 -25.440399 24.396997 -50.993643 -10.502136 -6.687820 -36.430330 -0.016272 -0.034711 0.121166 6.992721 8.152207 -11.001141 -30.138141 -33.007480 36.692227 -4.852704 10.672049 39.829845 0.038272 0.023939 0.230171 -0.000001 0.000001 0.000000 14.936572 16.968604 -39.452416 -11.631706 -24.917551 -46.828515 0.025407 0.014563 0.059552 -0.000000 0.000000 0.000002 0.000001 0.000001 -0.000001 -0.027532 0.007880 0.057875 0.000002 -0.000000 -0.000000 0.000000 0.000000 0.000003 0.000000 -0.014402 0.264660 32.345566 0.000000 -0.000000 13.953778 0.000002 0.000000 -26.272972 -0.237367 -0.938808 55.354729 0.415280 -0.434355 13.953784 0.000005 0.000000 -7.838388 0.436748 -0.726442 29.046530 0.201226 0.031399 
0.000000 -0.014402 0.264660 97.772526 0.000000 -0.000000 8.809388 0.000002 0.000000 5.862752 -5.168345 -3.643514 -22.682336 2.961998 3.436704 0.016245 -0.034711 0.119841 -3.107618 -9.563719 10.888385 -26.132888 24.437821 -50.803575 -9.884691 -5.653710 -36.910322 -0.016272 -0.034711 0.121166 6.992720 8.152209 -11.001139 -31.596872 -33.120796 36.342467 -5.983981 12.254113 39.047819 0.038272 0.023939 0.230171 -0.000001 0.000001 0.000000 13.364649 16.855679 -39.391712 -12.210051 -25.342812 -46.468782 0.025407 0.014563 0.059552 0.000001 0.000000 0.000002 -0.000001 -0.000001 0.000002 -0.027532 0.007880 0.057875 0.000002 -0.000000 -0.000000 0.000001 -0.000001 -0.000002 0.000000 -0.014402 0.264660 32.345566 0.000000 -0.000000 13.953778 0.000002 0.000000 -27.359352 -0.232579 -0.934272 55.538235 0.417207 -0.435039 13.953784 0.000005 0.000000 -7.078807 0.436748 -0.726442 27.915297 0.184506 0.030659 
0.000000 -0.014402 0.264660 98.461500 0.000000 -0.000000 10.402263 0.000003 0.000000 5.856821 -5.169279 -3.641675 -22.423818 2.994562 3.413591 0.016245 -0.034711 0.119841 -3.107619 -9.563719 10.888385 -26.669809 24.443307 -50.606210 -9.188949 -4.628981 -37.455309 -0.016272 -0.034711 0.121166 6.992722 8.152210 -11.001141 -32.698001 -33.200774 36.075430 -6.934645 13.555678 38.467325 0.038272 0.023939 0.230171 -0.000001 0.000001 0.000000 12.156936 16.755950 -39.341637 -12.645915 -25.667793 -46.183185 0.025407 0.014563 0.059552 -0.000000 0.000000 0.000002 -0.000001 -0.000000 -0.000001 -0.027532 0.007880 0.057875 0.000002 -0.000000 -0.000000 -0.000000 -0.000000 -0.000002 0.000000 -0.014402 0.264660 32.345566 0.000000 -0.000000 13.953778 0.000002 0.000000 -28.189205 -0.228480 -0.930239 55.664857 0.421030 -0.430139 13.953784 0.000005 0.000000 -6.518024 0.436748 -0.726442 27.058216 0.171850 0.029878 
0.000000 -0.014402 0.264660 98.917422 0.000000 -0.000000 11.984789 0.000003 0.000000 5.854737 -5.169975 -3.638277 -22.269584 3.014875 3.398863 0.016245 -0.034711 0.119841 -3.107622 -9.563722 10.888384 -27.042085 24.410753 -50.395902 -8.414601 -3.642073 -38.067465 -0.016272 -0.034711 0.121166 6.992714 8.152208 -11.001140 -33.393546 -33.248743 35.905338 -7.652566 14.469199 38.130419 0.038272 0.023939 0.230171 -0.000002 0.000001 0.000000 11.381973 16.684849 -39.307612 -12.920936 -25.875174 -45.994589 0.025407 0.014563 0.059552 -0.000002 0.000000 0.000002 0.000001 -0.000000 -0.000002 -0.027532 0.007879 0.057875 0.000001 -0.000000 -0.000000 0.000002 -0.000000 -0.000002 0.000000 -0.014402 0.264660 32.345566 0.000000 -0.000000 13.953778 0.000002 0.000000 -28.719047 -0.225616 -0.927351 55.761268 0.427357 -0.419132 13.953784 0.000005 0.000000 -6.170735 0.436748 -0.726442 26.514864 0.163833 0.029285 
0.000000 -0.014402 0.264660 99.082324 0.000000 -0.000000 13.523418 -0.000000 0.000000 5.854653 -5.170308 -3.633062 -22.218440 3.021887 3.393702 0.016245 -0.034711 0.119841 -3.107619 -9.563721 10.888384 -27.240541 24.337538 -50.166752 -7.561771 -2.721461 -38.748216 -0.016272 -0.034711 0.121166 6.992720 8.152206 -11.001137 -33.635915 -33.264964 35.845765 -8.084126 14.888779 38.078284 0.038272 0.023939 0.230171 -0.000003 0.000001 0.000000 11.108317 16.657773 -39.294980 -13.016724 -25.947955 -45.926373 0.025407 0.014563 0.059552 -0.000002 0.000000 0.000002 0.000003 -0.000001 -0.000000 -0.027532 0.007880 0.057875 0.000000 -0.000000 -0.000000 0.000001 0.000000 0.000001 0.000000 -0.014402 0.264660 32.345566 0.000000 -0.000000 13.953778 0.000002 0.000000 -28.905347 -0.224538 -0.926249 55.854227 0.436801 -0.401499 13.953784 0.000005 0.000000 -6.051703 0.436748 -0.726442 26.324919 0.161032 0.029060 
0.000000 -0.014402 0.264660 98.917443 0.000000 -0.000000 14.989142 0.000000 0.000000 6.385365 -5.087705 -3.534663 -22.692163 2.966035 3.426424 0.016245 -0.034711 0.119841 -3.107616 -9.563721 10.888385 -27.064094 24.248503 -49.879283 -6.561320 -1.917527 -39.495306 -0.016272 -0.034711 0.121166 6.992722 8.152207 -11.001139 -33.129546 -33.228843 35.966239 -8.321429 14.904883 38.462206 0.038272 0.023939 0.230171 -0.000002 0.000001 0.000000 11.583523 16.622529 -39.275920 -12.864186 -25.904819 -46.036537 0.025407 0.014563 0.059552 -0.000000 0.000000 0.000002 0.000001 -0.000001 -0.000001 -0.027532 0.007880 0.057875 0.000001 -0.000000 -0.000000 0.000000 0.000001 0.000000 0.000000 -0.014402 0.264660 32.345566 0.000000 -0.000000 13.953778 0.000002 0.000000 -28.903298 -0.214418 -0.923612 55.965084 0.449751 -0.377060 13.953784 0.000005 0.000000 -6.136754 0.436797 -0.726514 26.905438 0.169595 0.029719 
0.000000 -0.014402 0.264660 98.461500 0.000000 -0.000000 16.370053 0.000001 0.000000 7.853990 -4.854181 -3.277238 -24.025930 2.809393 3.515296 0.016245 -0.034711 0.119841 -3.107616 -9.563721 10.888384 -26.384789 24.171584 -49.507387 -5.378333 -1.257400 -40.294076 -0.016272 -0.034711 0.121166 6.992720 8.152207 -11.001141 -31.729190 -33.124204 36.297473 -8.500143 14.705250 39.339007 0.038272 0.023939 0.230171 -0.000002 0.000001 0.000000 12.899051 16.525737 -39.221593 -12.444440 -25.787757 -46.348540 0.025407 0.014563 0.059552 -0.000002 0.000000 0.000002 -0.000001 -0.000001 0.000001 -0.027532 0.007880 0.057875 0.000001 -0.000000 -0.000000 0.000002 0.000000 0.000001 0.000000 -0.014402 0.264660 32.345566 0.000000 -0.000000 13.953778 0.000002 0.000000 -28.889258 -0.186084 -0.916109 56.093922 0.465649 -0.346959 13.953784 0.000005 0.000000 -6.398258 0.436926 -0.726702 28.514138 0.193355 0.031092 
0.000000 -0.014402 0.264660 97.772532 0.000000 -0.000000 17.658378 0.000001 0.000000 10.076735 -4.487993 -2.902211 -26.090170 2.566988 3.644164 0.016245 -0.034711 0.119841 -3.107618 -9.563722 10.888384 -25.303423 24.109142 -49.065289 -4.064917 -0.733461 -41.124992 -0.016272 -0.034711 0.121166 6.992720 8.152207 -11.001139 -29.613573 -32.952982 36.792194 -8.626229 14.333063 40.609986 0.038272 0.023939 0.230171 -0.000002 0.000001 0.000000 14.890536 16.381463 -39.134966 -11.814038 -25.616495 -46.835017 0.025407 0.014563 0.059552 -0.000000 0.000000 0.000002 -0.000001 -0.000001 0.000001 -0.027532 0.007880 0.057875 0.000001 -0.000000 -0.000000 0.000001 0.000001 0.000003 0.000000 -0.014402 0.264660 32.345566 0.000000 -0.000000 13.953778 0.000002 0.000000 -28.851464 -0.142566 -0.904372 56.235447 0.483693 -0.312667 13.953784 0.000005 0.000000 -6.845743 0.437109 -0.726968 30.953700 0.229436 0.031900 
0.000000 -0.014402 0.264660 96.908589 0.000000 -0.000000 18.846174 0.000001 0.000000 12.867992 -4.007274 -2.453124 -28.755055 2.253629 3.795431 0.016245 -0.034711 0.119841 -3.107617 -9.563722 10.888384 -23.921559 24.063200 -48.567996 -2.673336 -0.336094 -41.967059 -0.016272 -0.034711 0.121166 6.992727 8.152209 -11.001141 -26.963516 -32.716333 37.401283 -8.704785 13.832630 42.177187 0.038272 0.023939 0.230171 -0.000001 0.000001 0.000000 17.392424 16.204328 -39.018832 -11.029456 -25.411396 -47.468497 0.025407 0.014563 0.059552 -0.000000 0.000000 0.000002 0.000001 0.000001 -0.000001 -0.027532 0.007880 0.057875 0.000002 -0.000000 -0.000000 0.000000 0.000000 0.000003 0.000000 -0.014402 0.264660 32.345566 0.000000 -0.000000 13.953778 0.000002 0.000000 -28.778107 -0.086889 -0.889061 56.384386 0.503070 -0.275655 13.953784 0.000005 0.000000 -7.488795 0.437323 -0.727269 34.024748 0.274851 0.030732 
0.000000 -0.014402 0.264660 95.927917 0.000000 -0.000000 19.925414 0.000002 0.000000 16.038522 -3.434419 -1.972610 -31.888237 1.885466 3.951780 0.016245 -0.034711 0.119841 -3.107619 -9.563722 10.888384 -22.341250 24.034420 -48.030918 -1.255736 -0.053349 -42.798471 -0.016272 -0.034711 0.121166 6.992722 8.152208 -11.001142 -23.962476 -32.418817 38.075313 -8.742675 13.248700 43.943921 0.038272 0.023939 0.230171 -0.000002 0.000001 0.000000 20.236310 16.008966 -38.877228 -10.147375 -25.192319 -48.220955 0.025407 0.014563 0.059552 -0.000000 0.000000 0.000002 -0.000001 -0.000001 -0.000001 -0.027532 0.007880 0.057875 0.000001 -0.000000 -0.000000 0.000001 -0.000000 -0.000002 0.000000 -0.014402 0.264660 32.345566 0.000000 -0.000000 13.953778 0.000002 0.000000 -28.657418 -0.022064 -0.870873 56.535457 0.522955 -0.237385 13.953784 0.000005 0.000000 -8.337122 0.437542 -0.727568 37.522242 0.326409 0.026441 
